<svg width="25" height="24" viewBox="0 0 25 24" fill="none" xmlns="http://www.w3.org/2000/svg">
<path d="M19.166 9C19.166 8.08075 18.985 7.1705 18.6332 6.32122C18.2814 5.47194 17.7658 4.70026 17.1158 4.05025C16.4658 3.40024 15.6941 2.88463 14.8448 2.53284C13.9955 2.18106 13.0853 2 12.166 2C11.2468 2 10.3365 2.18106 9.48723 2.53284C8.63795 2.88463 7.86628 3.40024 7.21627 4.05025C6.56626 4.70026 6.05064 5.47194 5.69886 6.32122C5.34708 7.1705 5.16602 8.08075 5.16602 9C5.16602 10.387 5.57602 11.677 6.27102 12.765H6.26302C8.62302 16.46 12.166 22 12.166 22L18.069 12.765H18.062C18.7824 11.6414 19.1656 10.3347 19.166 9V9ZM12.166 12C11.3704 12 10.6073 11.6839 10.0447 11.1213C9.48209 10.5587 9.16602 9.79565 9.16602 9C9.16602 8.20435 9.48209 7.44129 10.0447 6.87868C10.6073 6.31607 11.3704 6 12.166 6C12.9617 6 13.7247 6.31607 14.2873 6.87868C14.8499 7.44129 15.166 8.20435 15.166 9C15.166 9.79565 14.8499 10.5587 14.2873 11.1213C13.7247 11.6839 12.9617 12 12.166 12Z" fill="#0C21AE"/>
</svg>
