<svg width="26" height="24" viewBox="0 0 26 24" fill="none" xmlns="http://www.w3.org/2000/svg">
<path fill-rule="evenodd" clip-rule="evenodd" d="M13.1403 10.7996C14.1244 10.7996 15.0682 10.4203 15.7641 9.74519C16.4599 9.07006 16.8508 8.15439 16.8508 7.19961C16.8508 6.24483 16.4599 5.32916 15.7641 4.65403C15.0682 3.97889 14.1244 3.59961 13.1403 3.59961C12.1562 3.59961 11.2124 3.97889 10.5166 4.65403C9.82072 5.32916 9.42979 6.24483 9.42979 7.19961C9.42979 8.15439 9.82072 9.07006 10.5166 9.74519C11.2124 10.4203 12.1562 10.7996 13.1403 10.7996ZM7.78619 21.5996C5.96157 21.5996 4.42504 20.0632 5.14147 18.3851C5.57657 17.3659 6.2143 16.4399 7.01826 15.6599C7.82222 14.8799 8.77666 14.2612 9.82709 13.839C10.8775 13.4169 12.0033 13.1996 13.1403 13.1996C14.2773 13.1996 15.4031 13.4169 16.4536 13.839C17.504 14.2612 18.4584 14.8799 19.2624 15.6599C20.0663 16.4399 20.7041 17.3659 21.1392 18.3851C21.8556 20.0632 20.3191 21.5996 18.4944 21.5996H7.78619Z" fill="#0C21AE"/>
</svg>
